{"title":"Puberty Blues (1981) BBRIP 1080P ","uid":10029536,"size":2980178202,"categoryP":"video","categoryS":"hd___movies","magnet":"?xt=urn:btih:e6bf01c44545b8753b5069fbf29262c7b06dd864&amp;dn=+Puberty+Blues+%281981%29+BBRIP+1080P+&amp;tr=udp%3A%2F%2Ftracker.openbittorrent.com%3A80&amp;tr=udp%3A%2F%2Fopen.demonii.com%3A1337&amp;tr=udp%3A%2F%2Ftracker.coppersurfer.tk%3A6969&amp;tr=udp%3A%2F%2Fexodus.desync.com%3A6969","seeders":0,"leechers":1,"uploader":"jmanwf","files":-1,"time":1398314969,"description":"Storyline\n\nMeet Sue, a teenage Australian girl in the late 70s, whose life mainly consists of doing what everyone else does - watch the surfing boys and have sex with the same surfing boys. The girls have to follow lots of strange customs, e.g. do not eat or go to the bathroom when a boy is around. Ugly girls have two choices - being bitches and hate boys, or being generally cheap and looked down upon by everyone. The afternoons are spent on the beaches, in the backseats of car or at home-alone-parties where sex and alcohol are the main ingredients. Parents and teachers are trying to straighten the kids out, but that is not easy. \n\n &lt;a href=&quot;\nhttp://www.imdb.com/title/tt0082956/&quot; rel=&quot;nofollow&quot; target=&quot;_NEW&quot;&gt;\nhttp://www.imdb.com/title/tt0082956/&lt;/a&gt;\n\n\nFormat                                   : MPEG-4\nFormat profile                           : Base Media\nCodec ID                                 : isom\nFile size                                : 2.77 GiB\nDuration                                 : 1h 23mn\nOverall bit rate mode                    : Variable\nOverall bit rate                         : 4 779 Kbps\nWriting application                      : Lavf54.63.104\n\nVideo\nID                                       : 1\nFormat                                   : AVC\nFormat/Info                              : Advanced Video Codec\nFormat profile                           : &lt;a class=&quot;__cf_email__&quot; href=&quot;/cdn-cgi/l/email-protection&quot; data-cfemail=&quot;3f775658577f730b110f&quot;&gt;[email&amp;#160;protected]&lt;/a&gt;&lt;script cf-hash='f9e31' type=&quot;text/javascript&quot;&gt;\n/* &lt;![CDATA[ */!function(){try{var t=&quot;currentScript&quot;in document?document.currentScript:function(){for(var t=document.getElementsByTagName(&quot;script&quot;),e=t.length;e--;)if(t[e].getAttribute(&quot;cf-hash&quot;))return t[e]}();if(t&amp;&amp;t.previousSibling){var e,r,n,i,c=t.previousSibling,a=c.getAttribute(&quot;data-cfemail&quot;);if(a){for(e=&quot;&quot;,r=parseInt(a.substr(0,2),16),n=2;a.length-n;n+=2)i=parseInt(a.substr(n,2),16)^r,e+=String.fromCharCode(i);e=document.createTextNode(e),c.parentNode.replaceChild(e,c)}}}catch(u){}}();/* ]]&gt; */&lt;/script&gt;\nFormat settings, CABAC                   : Yes\nFormat settings, ReFrames                : 4 frames\nCodec ID                                 : avc1\nCodec ID/Info                            : Advanced Video Coding\nDuration                                 : 1h 23mn\nBit rate                                 : 4 484 Kbps\nWidth                                    : 1 920 pixels\nHeight                                   : 1 080 pixels\nDisplay aspect ratio                     : 16:9\nFrame rate mode                          : Constant\nFrame rate                               : 25.000 fps\nColor space                              : YUV\nChroma subsampling                       : 4:2:0\nBit depth                                : 8 bits\nScan type                                : Progressive\nBits/(Pixel*Frame)                       : 0.086\nStream size                              : 2.60 GiB (94%)\nWriting library                          : x264 core 123\n\nAudio #1\nID                                       : 2\nFormat                                   : AAC\nFormat/Info                              : Advanced Audio Codec\nFormat profile                           : LC\nCodec ID                                 : 40\nDuration                                 : 1h 23mn\nBit rate mode                            : Variable\nBit rate                                 : 96.0 Kbps\nMaximum bit rate                         : 128 Kbps\nChannel(s)                               : 2 channels\nChannel positions                        : Front: L R\nSampling rate                            : 48.0 KHz\nCompression mode                         : Lossy\nStream size                              : 57.6 MiB (2%)\n\n\n\n\nINCLUDES DIRECTORIES COMMENTARY","torrent":{"xt":"urn:btih:e6bf01c44545b8753b5069fbf29262c7b06dd864","amp;dn":"+Puberty+Blues+%281981%29+BBRIP+1080P+","amp;tr":["udp%3A%2F%2Ftracker.openbittorrent.com%3A80","udp%3A%2F%2Fopen.demonii.com%3A1337","udp%3A%2F%2Ftracker.coppersurfer.tk%3A6969","udp%3A%2F%2Fexodus.desync.com%3A6969"],"infoHash":"e6bf01c44545b8753b5069fbf29262c7b06dd864","infoHashBuffer":{"type":"Buffer","data":[230,191,1,196,69,69,184,117,59,80,105,251,242,146,98,199,176,109,216,100]},"announce":[],"urlList":[]}}